<svg width="758" height="700" viewBox="0 0 758 700" fill="none" xmlns="http://www.w3.org/2000/svg">
<ellipse cx="302.076" cy="181.139" rx="178.732" ry="169.747" fill="#C8E1E1"/>
<ellipse cx="188.945" cy="356.583" rx="178.732" ry="169.747" fill="#C8E1E1"/>
<ellipse cx="490.5" cy="342" rx="196.5" ry="184" fill="#C8E1E1"/>
<path d="M469.805 101.766C480.692 120.955 487.924 141.849 491.182 163.454L486.112 163.99C482.923 142.883 475.857 122.486 465.237 103.769C453.547 83.1662 437.782 65.0062 418.854 50.3174C399.925 35.629 378.201 24.6973 354.925 18.1369C331.649 11.5765 307.268 9.51318 283.172 12.0626C259.077 14.6119 235.728 21.7251 214.459 33.0033C193.19 44.2817 174.413 59.5072 159.207 77.8207C144 96.1348 132.663 117.177 125.856 139.75C119.68 160.228 117.343 181.594 118.938 202.838L113.862 203.375C112.194 181.571 114.578 159.634 120.92 138.605C127.885 115.509 139.492 93.9519 155.089 75.1687C170.685 56.3849 189.968 40.7416 211.842 29.1422C233.717 17.5425 257.751 10.2169 282.57 7.59096C307.39 4.96496 332.501 7.09108 356.466 13.8456C380.43 20.6001 402.772 31.8483 422.218 46.938C441.663 62.0275 457.829 80.6609 469.805 101.766Z" fill="#C8E1E1" stroke="#99D1D1" stroke-width="13" stroke-linejoin="round"/>
<path d="M662.874 441.625C637.508 479.351 598.686 506.731 553.836 518.611L552.75 514.198C596.146 502.609 633.804 476.042 658.481 439.34C684.371 400.836 693.972 354.148 685.256 308.953C676.542 263.762 650.198 223.599 611.755 196.74C575.064 171.105 530.015 159.444 485.171 163.793L484.544 159.324C530.772 154.822 577.177 166.844 614.915 193.21C654.42 220.811 681.38 261.997 690.291 308.206C699.201 354.411 689.399 402.175 662.874 441.625Z" fill="#C8E1E1" stroke="#99D1D1" stroke-width="13" stroke-linejoin="round"/>
<path d="M39.2969 263.873C58.4955 237.589 84.9728 216.602 115.936 203.135L117.636 206.842C87.9135 219.926 62.3818 240.215 43.7663 265.7C23.8434 292.974 12.6885 325.047 11.6807 358.123C10.6727 391.2 19.8568 423.82 38.0952 452.118C55.1865 478.636 77.3848 498.299 106.08 512.682L103.759 517.618C74.145 502.663 51.0628 481.011 33.5011 453.763C14.8778 424.869 5.55192 391.653 6.57615 358.04C7.6004 324.427 18.9348 291.749 39.2969 263.873Z" fill="#C8E1E1" stroke="#99D1D1" stroke-width="13" stroke-linejoin="round"/>
<path fill-rule="evenodd" clip-rule="evenodd" d="M552.3 526.329H106.846V509.62H552.3V526.329Z" fill="#99D1D1"/>
<rect x="157.127" y="374.431" width="304.826" height="135.19" fill="#C8E1E1"/>
<mask id="path-9-outside-1_200_7922" maskUnits="userSpaceOnUse" x="147.127" y="27.2148" width="243" height="148" fill="black">
<rect fill="white" x="147.127" y="27.2148" width="243" height="148"/>
<path d="M380 51.9695C357.048 41.7429 331.426 36.6804 305.55 37.2595C279.675 37.8385 254.398 44.0399 232.103 55.2791C209.808 66.5182 191.23 82.4247 178.121 101.499C165.011 120.573 157.801 142.186 157.172 164.301L159.745 164.354C160.364 142.613 167.451 121.365 180.34 102.613C193.228 83.8606 211.492 68.2227 233.411 57.1734C255.329 46.124 280.179 40.0273 305.618 39.458C331.056 38.8888 356.246 43.8657 378.811 53.9196L380 51.9695Z"/>
</mask>
<path d="M380 51.9695C357.048 41.7429 331.426 36.6804 305.55 37.2595C279.675 37.8385 254.398 44.0399 232.103 55.2791C209.808 66.5182 191.23 82.4247 178.121 101.499C165.011 120.573 157.801 142.186 157.172 164.301L159.745 164.354C160.364 142.613 167.451 121.365 180.34 102.613C193.228 83.8606 211.492 68.2227 233.411 57.1734C255.329 46.124 280.179 40.0273 305.618 39.458C331.056 38.8888 356.246 43.8657 378.811 53.9196L380 51.9695Z" fill="#EDF1FF"/>
<path d="M380 51.9695C357.048 41.7429 331.426 36.6804 305.55 37.2595C279.675 37.8385 254.398 44.0399 232.103 55.2791C209.808 66.5182 191.23 82.4247 178.121 101.499C165.011 120.573 157.801 142.186 157.172 164.301L159.745 164.354C160.364 142.613 167.451 121.365 180.34 102.613C193.228 83.8606 211.492 68.2227 233.411 57.1734C255.329 46.124 280.179 40.0273 305.618 39.458C331.056 38.8888 356.246 43.8657 378.811 53.9196L380 51.9695Z" stroke="#EDF1FF" stroke-width="20" stroke-linejoin="round" mask="url(#path-9-outside-1_200_7922)"/>
<mask id="path-10-outside-2_200_7922" maskUnits="userSpaceOnUse" x="415.6" y="184.431" width="113" height="60" fill="black">
<rect fill="white" x="415.6" y="184.431" width="113" height="60"/>
<path d="M518.352 198.12C501.187 192.75 482.632 193.255 465.806 199.551C448.98 205.846 434.909 217.549 425.956 232.692L428.055 233.852C436.732 219.175 450.371 207.833 466.679 201.731C482.987 195.629 500.97 195.139 517.608 200.344L518.352 198.12Z"/>
</mask>
<path d="M518.352 198.12C501.187 192.75 482.632 193.255 465.806 199.551C448.98 205.846 434.909 217.549 425.956 232.692L428.055 233.852C436.732 219.175 450.371 207.833 466.679 201.731C482.987 195.629 500.97 195.139 517.608 200.344L518.352 198.12Z" fill="#EDF1FF"/>
<path d="M518.352 198.12C501.187 192.75 482.632 193.255 465.806 199.551C448.98 205.846 434.909 217.549 425.956 232.692L428.055 233.852C436.732 219.175 450.371 207.833 466.679 201.731C482.987 195.629 500.97 195.139 517.608 200.344L518.352 198.12Z" stroke="#EDF1FF" stroke-width="20" stroke-linejoin="round" mask="url(#path-10-outside-2_200_7922)"/>
<path d="M607.509 559.747C607.509 567.606 600.875 574.234 592.368 574.234C583.861 574.234 577.227 567.606 577.227 559.747C577.227 551.888 583.861 545.26 592.368 545.26C600.875 545.26 607.509 551.888 607.509 559.747Z" fill="#C8E1E1" stroke="#99D1D1" stroke-width="9"/>
<path d="M616.723 604C621.406 604 625.436 600.295 625.436 595.443C625.436 590.59 621.406 586.886 616.723 586.886C612.039 586.886 608.009 590.59 608.009 595.443C608.009 600.295 612.039 604 616.723 604Z" fill="#C8E1E1" stroke="#99D1D1" stroke-width="8"/>
<g filter="url(#filter0_b_200_7922)">
<path d="M250.58 269.24V279.24C256.103 279.24 260.58 274.763 260.58 269.24H250.58ZM230.98 269.24V259.24C225.457 259.24 220.98 263.717 220.98 269.24H230.98ZM230.98 295V305C236.503 305 240.98 300.523 240.98 295H230.98ZM220.9 295H210.9C210.9 300.523 215.377 305 220.9 305V295ZM220.9 269.24H230.9C230.9 263.717 226.423 259.24 220.9 259.24V269.24ZM165.6 269.24H155.6C155.6 274.763 160.077 279.24 165.6 279.24V269.24ZM165.6 261.96L157.79 255.715C156.372 257.488 155.6 259.69 155.6 261.96H165.6ZM217.54 197V187C214.501 187 211.627 188.382 209.73 190.755L217.54 197ZM228.74 197L236.579 203.209C238.96 200.202 239.412 196.099 237.742 192.646C236.073 189.193 232.575 187 228.74 187V197ZM178.62 260.28L170.781 254.071C168.4 257.078 167.948 261.181 169.618 264.634C171.287 268.087 174.785 270.28 178.62 270.28V260.28ZM221.18 260.28V270.28C226.703 270.28 231.18 265.803 231.18 260.28H221.18ZM221.18 237.6V227.6C215.657 227.6 211.18 232.077 211.18 237.6H221.18ZM230.98 237.6H240.98C240.98 232.077 236.503 227.6 230.98 227.6V237.6ZM230.98 260.28H220.98C220.98 265.803 225.457 270.28 230.98 270.28V260.28ZM250.58 260.28H260.58C260.58 254.757 256.103 250.28 250.58 250.28V260.28ZM250.58 259.24H230.98V279.24H250.58V259.24ZM220.98 269.24V295H240.98V269.24H220.98ZM230.98 285H220.9V305H230.98V285ZM230.9 295V269.24H210.9V295H230.9ZM220.9 259.24H165.6V279.24H220.9V259.24ZM175.6 269.24V261.96H155.6V269.24H175.6ZM173.41 268.205L225.35 203.245L209.73 190.755L157.79 255.715L173.41 268.205ZM217.54 207H228.74V187H217.54V207ZM220.901 190.791L170.781 254.071L186.459 266.489L236.579 203.209L220.901 190.791ZM178.62 270.28H221.18V250.28H178.62V270.28ZM231.18 260.28V237.6H211.18V260.28H231.18ZM221.18 247.6H230.98V227.6H221.18V247.6ZM220.98 237.6V260.28H240.98V237.6H220.98ZM230.98 270.28H250.58V250.28H230.98V270.28ZM240.58 260.28V269.24H260.58V260.28H240.58Z" fill="#3DA1A1"/>
</g>
<path d="M353.04 348.82L347.403 357.079C347.423 357.093 347.443 357.107 347.463 357.12L353.04 348.82ZM339.18 331.6L330 335.567C330.02 335.612 330.04 335.658 330.061 335.704L339.18 331.6ZM339.18 278.54L330.042 274.479C330.034 274.496 330.026 274.514 330.018 274.532L339.18 278.54ZM353.04 261.18L347.463 252.879C347.443 252.893 347.423 252.907 347.403 252.92L353.04 261.18ZM393.5 261.18L387.863 269.439C387.883 269.453 387.903 269.467 387.923 269.48L393.5 261.18ZM407.5 278.54L398.362 282.601C398.368 282.615 398.374 282.63 398.381 282.644L407.5 278.54ZM407.5 331.6L416.619 335.704C416.626 335.69 416.632 335.675 416.638 335.661L407.5 331.6ZM393.5 348.82L387.923 340.52C387.903 340.533 387.883 340.547 387.863 340.561L393.5 348.82ZM388.32 340.84L382.459 332.738C382.431 332.758 382.404 332.778 382.376 332.798L388.32 340.84ZM398.54 326.98L407.825 330.694L407.825 330.694L398.54 326.98ZM398.54 283.02L407.825 279.306L407.825 279.306L398.54 283.02ZM388.32 269.16L382.376 277.202C382.404 277.222 382.431 277.242 382.459 277.262L388.32 269.16ZM358.22 269.16L352.359 261.058C352.331 261.078 352.304 261.098 352.276 261.118L358.22 269.16ZM348.14 283.02L357.425 286.734L348.14 283.02ZM348.14 326.98L357.425 323.266L348.14 326.98ZM358.22 340.84L352.276 348.882C352.304 348.902 352.331 348.922 352.359 348.942L358.22 340.84ZM373.34 344.84C367.661 344.84 362.856 343.367 358.617 340.52L347.463 357.12C355.171 362.299 363.899 364.84 373.34 364.84V344.84ZM358.677 340.561C354.536 337.734 351.019 333.541 348.299 327.496L330.061 335.704C334.061 344.593 339.784 351.88 347.403 357.079L358.677 340.561ZM348.36 327.633C345.746 321.584 344.28 314.121 344.28 305H324.28C324.28 316.226 326.081 326.496 330 335.567L348.36 327.633ZM344.28 305C344.28 295.874 345.747 288.479 348.342 282.548L330.018 274.532C326.08 283.535 324.28 293.779 324.28 305H344.28ZM348.318 282.601C351.048 276.459 354.566 272.246 358.677 269.439L347.403 252.92C339.754 258.141 334.032 265.501 330.042 274.479L348.318 282.601ZM358.617 269.48C362.856 266.633 367.661 265.16 373.34 265.16V245.16C363.899 245.16 355.171 247.701 347.463 252.879L358.617 269.48ZM373.34 265.16C379.02 265.16 383.749 266.632 387.863 269.439L399.137 252.92C391.491 247.701 382.78 245.16 373.34 245.16V265.16ZM387.923 269.48C392.111 272.294 395.649 276.498 398.362 282.601L416.638 274.479C412.631 265.462 406.835 258.092 399.077 252.88L387.923 269.48ZM398.381 282.644C401.037 288.547 402.54 295.908 402.54 305H422.54C422.54 293.745 420.683 283.466 416.619 274.436L398.381 282.644ZM402.54 305C402.54 314.087 401.039 321.515 398.362 327.539L416.638 335.661C420.681 326.565 422.54 316.259 422.54 305H402.54ZM398.381 327.496C395.679 333.501 392.142 337.685 387.923 340.52L399.077 357.12C406.805 351.928 412.601 344.632 416.619 335.704L398.381 327.496ZM387.863 340.561C383.749 343.368 379.02 344.84 373.34 344.84V364.84C382.78 364.84 391.491 362.299 399.137 357.079L387.863 340.561ZM373.34 355.6C381.022 355.6 388.132 353.414 394.264 348.882L382.376 332.798C379.921 334.613 377.045 335.6 373.34 335.6V355.6ZM394.181 348.942C400.392 344.449 404.842 338.152 407.825 330.694L389.255 323.266C387.385 327.942 385.021 330.884 382.459 332.738L394.181 348.942ZM407.825 330.694C410.847 323.139 412.18 314.48 412.18 305H392.18C392.18 312.693 391.087 318.688 389.255 323.266L407.825 330.694ZM412.18 305C412.18 295.52 410.847 286.861 407.825 279.306L389.255 286.734C391.087 291.312 392.18 297.307 392.18 305H412.18ZM407.825 279.306C404.842 271.848 400.392 265.551 394.181 261.058L382.459 277.262C385.021 279.116 387.385 282.058 389.255 286.734L407.825 279.306ZM394.264 261.118C388.132 256.586 381.022 254.4 373.34 254.4V274.4C377.045 274.4 379.921 275.387 382.376 277.202L394.264 261.118ZM373.34 254.4C365.657 254.4 358.542 256.585 352.359 261.058L364.081 277.262C366.671 275.389 369.636 274.4 373.34 274.4V254.4ZM352.276 261.118C346.186 265.62 341.817 271.901 338.855 279.306L357.425 286.734C359.316 282.006 361.667 279.047 364.164 277.202L352.276 261.118ZM338.855 279.306C335.833 286.861 334.5 295.52 334.5 305H354.5C354.5 297.307 355.593 291.312 357.425 286.734L338.855 279.306ZM334.5 305C334.5 314.48 335.833 323.139 338.855 330.694L357.425 323.266C355.593 318.688 354.5 312.693 354.5 305H334.5ZM338.855 330.694C341.817 338.099 346.186 344.38 352.276 348.882L364.164 332.798C361.667 330.953 359.316 327.994 357.425 323.266L338.855 330.694ZM352.359 348.942C358.542 353.415 365.657 355.6 373.34 355.6V335.6C369.636 335.6 366.671 334.611 364.081 332.738L352.359 348.942Z" fill="#3DA1A1"/>
<path d="M583.58 423.24V433.24C589.103 433.24 593.58 428.763 593.58 423.24H583.58ZM563.98 423.24V413.24C558.457 413.24 553.98 417.717 553.98 423.24H563.98ZM563.98 449V459C569.503 459 573.98 454.523 573.98 449H563.98ZM553.9 449H543.9C543.9 454.523 548.377 459 553.9 459V449ZM553.9 423.24H563.9C563.9 417.717 559.423 413.24 553.9 413.24V423.24ZM498.6 423.24H488.6C488.6 428.763 493.077 433.24 498.6 433.24V423.24ZM498.6 415.96L490.79 409.715C489.372 411.488 488.6 413.69 488.6 415.96H498.6ZM550.54 351V341C547.501 341 544.627 342.382 542.73 344.755L550.54 351ZM561.74 351L569.579 357.209C571.96 354.202 572.412 350.099 570.742 346.646C569.073 343.193 565.575 341 561.74 341V351ZM511.62 414.28L503.781 408.071C501.4 411.078 500.948 415.181 502.618 418.634C504.287 422.087 507.785 424.28 511.62 424.28V414.28ZM554.18 414.28V424.28C559.703 424.28 564.18 419.803 564.18 414.28H554.18ZM554.18 391.6V381.6C548.657 381.6 544.18 386.077 544.18 391.6H554.18ZM563.98 391.6H573.98C573.98 386.077 569.503 381.6 563.98 381.6V391.6ZM563.98 414.28H553.98C553.98 419.803 558.457 424.28 563.98 424.28V414.28ZM583.58 414.28H593.58C593.58 408.757 589.103 404.28 583.58 404.28V414.28ZM583.58 413.24H563.98V433.24H583.58V413.24ZM553.98 423.24V449H573.98V423.24H553.98ZM563.98 439H553.9V459H563.98V439ZM563.9 449V423.24H543.9V449H563.9ZM553.9 413.24H498.6V433.24H553.9V413.24ZM508.6 423.24V415.96H488.6V423.24H508.6ZM506.41 422.205L558.35 357.245L542.73 344.755L490.79 409.715L506.41 422.205ZM550.54 361H561.74V341H550.54V361ZM553.901 344.791L503.781 408.071L519.459 420.489L569.579 357.209L553.901 344.791ZM511.62 424.28H554.18V404.28H511.62V424.28ZM564.18 414.28V391.6H544.18V414.28H564.18ZM554.18 401.6H563.98V381.6H554.18V401.6ZM553.98 391.6V414.28H573.98V391.6H553.98ZM563.98 424.28H583.58V404.28H563.98V424.28ZM573.58 414.28V423.24H593.58V414.28H573.58Z" fill="#3DA1A1"/>
<defs>
<filter id="filter0_b_200_7922" x="161.6" y="193" width="92.98" height="106" filterUnits="userSpaceOnUse" color-interpolation-filters="sRGB">
<feFlood flood-opacity="0" result="BackgroundImageFix"/>
<feGaussianBlur in="BackgroundImageFix" stdDeviation="2"/>
<feComposite in2="SourceAlpha" operator="in" result="effect1_backgroundBlur_200_7922"/>
<feBlend mode="normal" in="SourceGraphic" in2="effect1_backgroundBlur_200_7922" result="shape"/>
</filter>
</defs>
</svg>
