<svg width="40" height="40" viewBox="0 0 40 40" fill="none" xmlns="http://www.w3.org/2000/svg">
<circle cx="20" cy="20" r="19" stroke="#A1300A" stroke-width="2"/>
<path d="M23.6798 11.96C24.1598 12.67 24.4398 13.52 24.4398 14.44C24.4298 16.84 22.5398 18.79 20.1598 18.87C20.0598 18.86 19.9398 18.86 19.8298 18.87C17.6198 18.8 15.8298 17.11 15.5898 14.95C15.2998 12.38 17.4098 10 19.9898 10M14.9898 22.56C12.5698 24.18 12.5698 26.82 14.9898 28.43C17.7398 30.27 22.2498 30.27 24.9998 28.43C27.4198 26.81 27.4198 24.17 24.9998 22.56C22.2698 20.73 17.7598 20.73 14.9898 22.56V22.56Z" stroke="#A1300A" stroke-width="1.5" stroke-linecap="round" stroke-linejoin="round"/>
</svg>
