<svg width="80" height="80" viewBox="0 0 80 80" fill="none" xmlns="http://www.w3.org/2000/svg">
<circle cx="40" cy="40" r="40" fill="#FFBABA"/>
<circle cx="40" cy="40" r="40" fill="#FFBABA"/>
<circle cx="40" cy="40" r="40" fill="#FFBABA"/>
<path d="M39.4999 49.6663V63.4163M46.3749 56.5413H32.6249M39.4999 49.6663C43.7544 49.6663 47.8347 47.9762 50.8431 44.9678C53.8515 41.9594 55.5416 37.8792 55.5416 33.6247C55.5416 29.3702 53.8515 25.2899 50.8431 22.2815C47.8347 19.2731 43.7544 17.583 39.4999 17.583C35.2454 17.583 31.1651 19.2731 28.1567 22.2815C25.1484 25.2899 23.4583 29.3702 23.4583 33.6247C23.4583 37.8792 25.1484 41.9594 28.1567 44.9678C31.1651 47.9762 35.2454 49.6663 39.4999 49.6663V49.6663Z" stroke="#FFF1EB" stroke-width="4" stroke-linecap="round" stroke-linejoin="round"/>
</svg>
