<svg width="56" height="49" viewBox="0 0 56 49" fill="none" xmlns="http://www.w3.org/2000/svg">
<circle cx="28" cy="24" r="19" stroke="#A1300A" stroke-width="2"/>
<path d="M28 22.5C27.337 22.5 26.7011 22.7634 26.2322 23.2322C25.7634 23.7011 25.5 24.337 25.5 25C25.5 25.663 25.7634 26.2989 26.2322 26.7678C26.7011 27.2366 27.337 27.5 28 27.5C28.663 27.5 29.2989 27.2366 29.7678 26.7678C30.2366 26.2989 30.5 25.663 30.5 25" stroke="#A1300A" stroke-width="2" stroke-linecap="round" stroke-linejoin="round"/>
<path d="M19.3603 31.2398C19.6003 32.6598 20.9603 33.8098 22.4003 33.8098H33.6003C35.0303 33.8098 36.4003 32.6498 36.6403 31.2398L37.9703 23.2798C38.1303 22.2998 37.6303 20.9898 36.8603 20.3698L29.9303 14.8298C28.8603 13.9698 27.1303 13.9698 26.0703 14.8198L19.1403 20.3698C18.3603 20.9898 17.8603 22.2998 18.0303 23.2798L18.7103 27.3698" stroke="#A1300A" stroke-width="2" stroke-linecap="round" stroke-linejoin="round"/>
</svg>
