<svg width="458" height="110" viewBox="0 0 458 110" fill="none" xmlns="http://www.w3.org/2000/svg">
<path d="M153.961 43.08C157.119 43.08 159.977 43.8053 162.537 45.256C165.097 46.664 167.103 48.6693 168.553 51.272C170.004 53.8747 170.729 56.84 170.729 60.168C170.729 63.5387 170.004 66.5253 168.553 69.128C167.103 71.7307 165.097 73.7573 162.537 75.208C160.02 76.616 157.161 77.32 153.961 77.32C151.231 77.32 148.756 76.7653 146.537 75.656C144.361 74.504 142.569 72.84 141.161 70.664V89.416H136.617V43.336H140.969V49.992C142.335 47.7733 144.127 46.0667 146.345 44.872C148.607 43.6773 151.145 43.08 153.961 43.08ZM153.641 73.288C155.988 73.288 158.121 72.7547 160.041 71.688C161.961 70.5787 163.455 69.0213 164.521 67.016C165.631 65.0107 166.185 62.728 166.185 60.168C166.185 57.608 165.631 55.3467 164.521 53.384C163.455 51.3787 161.961 49.8213 160.041 48.712C158.121 47.6027 155.988 47.048 153.641 47.048C151.252 47.048 149.097 47.6027 147.177 48.712C145.3 49.8213 143.807 51.3787 142.697 53.384C141.631 55.3467 141.097 57.608 141.097 60.168C141.097 62.728 141.631 65.0107 142.697 67.016C143.807 69.0213 145.3 70.5787 147.177 71.688C149.097 72.7547 151.252 73.288 153.641 73.288ZM193.752 77.32C190.51 77.32 187.587 76.5947 184.984 75.144C182.382 73.6507 180.334 71.6027 178.84 69C177.347 66.3973 176.6 63.4533 176.6 60.168C176.6 56.8827 177.347 53.9387 178.84 51.336C180.334 48.7333 182.382 46.7067 184.984 45.256C187.587 43.8053 190.51 43.08 193.752 43.08C196.995 43.08 199.918 43.8053 202.52 45.256C205.123 46.7067 207.15 48.7333 208.6 51.336C210.094 53.9387 210.84 56.8827 210.84 60.168C210.84 63.4533 210.094 66.3973 208.6 69C207.15 71.6027 205.123 73.6507 202.52 75.144C199.918 76.5947 196.995 77.32 193.752 77.32ZM193.752 73.288C196.142 73.288 198.275 72.7547 200.152 71.688C202.072 70.5787 203.566 69.0213 204.632 67.016C205.699 65.0107 206.232 62.728 206.232 60.168C206.232 57.608 205.699 55.3253 204.632 53.32C203.566 51.3147 202.072 49.7787 200.152 48.712C198.275 47.6027 196.142 47.048 193.752 47.048C191.363 47.048 189.208 47.6027 187.288 48.712C185.411 49.7787 183.918 51.3147 182.808 53.32C181.742 55.3253 181.208 57.608 181.208 60.168C181.208 62.728 181.742 65.0107 182.808 67.016C183.918 69.0213 185.411 70.5787 187.288 71.688C189.208 72.7547 191.363 73.288 193.752 73.288ZM232.597 60.104L224.661 67.4V77H220.117V29.512H224.661V61.704L244.757 43.336H250.389L235.989 57.096L251.733 77H246.165L232.597 60.104ZM271.58 73.288C273.67 73.288 275.59 72.9253 277.34 72.2C279.132 71.432 280.646 70.3227 281.884 68.872L284.444 71.816C282.95 73.608 281.094 74.9733 278.876 75.912C276.657 76.8507 274.204 77.32 271.516 77.32C268.06 77.32 264.988 76.5947 262.3 75.144C259.612 73.6507 257.521 71.6027 256.028 69C254.534 66.3973 253.788 63.4533 253.788 60.168C253.788 56.8827 254.492 53.9387 255.9 51.336C257.35 48.7333 259.334 46.7067 261.852 45.256C264.369 43.8053 267.228 43.08 270.428 43.08C273.414 43.08 276.102 43.7627 278.492 45.128C280.924 46.4933 282.844 48.392 284.252 50.824C285.702 53.256 286.47 56.0293 286.556 59.144L258.908 64.52C259.761 67.2507 261.297 69.4053 263.516 70.984C265.777 72.52 268.465 73.288 271.58 73.288ZM270.428 46.984C268.081 46.984 265.969 47.5387 264.092 48.648C262.257 49.7147 260.806 51.2293 259.74 53.192C258.716 55.112 258.204 57.3307 258.204 59.848C258.204 60.488 258.225 60.9573 258.268 61.256L282.012 56.648C281.5 53.832 280.198 51.528 278.108 49.736C276.017 47.9013 273.457 46.984 270.428 46.984ZM326.525 29.512V77H322.173V70.344C320.807 72.6053 318.994 74.3333 316.733 75.528C314.514 76.7227 311.997 77.32 309.181 77.32C306.023 77.32 303.165 76.5947 300.605 75.144C298.045 73.6933 296.039 71.6667 294.589 69.064C293.138 66.4613 292.413 63.496 292.413 60.168C292.413 56.84 293.138 53.8747 294.589 51.272C296.039 48.6693 298.045 46.664 300.605 45.256C303.165 43.8053 306.023 43.08 309.181 43.08C311.911 43.08 314.365 43.656 316.541 44.808C318.759 45.9173 320.573 47.56 321.981 49.736V29.512H326.525ZM309.565 73.288C311.911 73.288 314.023 72.7547 315.901 71.688C317.821 70.5787 319.314 69.0213 320.381 67.016C321.49 65.0107 322.045 62.728 322.045 60.168C322.045 57.608 321.49 55.3253 320.381 53.32C319.314 51.3147 317.821 49.7787 315.901 48.712C314.023 47.6027 311.911 47.048 309.565 47.048C307.175 47.048 305.021 47.6027 303.101 48.712C301.223 49.7787 299.73 51.3147 298.621 53.32C297.554 55.3253 297.021 57.608 297.021 60.168C297.021 62.728 297.554 65.0107 298.621 67.016C299.73 69.0213 301.223 70.5787 303.101 71.688C305.021 72.7547 307.175 73.288 309.565 73.288ZM353.58 73.288C355.67 73.288 357.59 72.9253 359.34 72.2C361.132 71.432 362.646 70.3227 363.884 68.872L366.444 71.816C364.95 73.608 363.094 74.9733 360.876 75.912C358.657 76.8507 356.204 77.32 353.516 77.32C350.06 77.32 346.988 76.5947 344.3 75.144C341.612 73.6507 339.521 71.6027 338.028 69C336.534 66.3973 335.788 63.4533 335.788 60.168C335.788 56.8827 336.492 53.9387 337.9 51.336C339.35 48.7333 341.334 46.7067 343.852 45.256C346.369 43.8053 349.228 43.08 352.428 43.08C355.414 43.08 358.102 43.7627 360.492 45.128C362.924 46.4933 364.844 48.392 366.252 50.824C367.702 53.256 368.47 56.0293 368.556 59.144L340.908 64.52C341.761 67.2507 343.297 69.4053 345.516 70.984C347.777 72.52 350.465 73.288 353.58 73.288ZM352.428 46.984C350.081 46.984 347.969 47.5387 346.092 48.648C344.257 49.7147 342.806 51.2293 341.74 53.192C340.716 55.112 340.204 57.3307 340.204 59.848C340.204 60.488 340.225 60.9573 340.268 61.256L364.012 56.648C363.5 53.832 362.198 51.528 360.108 49.736C358.017 47.9013 355.457 46.984 352.428 46.984ZM398.307 77L387.619 62.92L376.867 77H371.747L385.059 59.72L372.387 43.336H377.507L387.619 56.52L397.731 43.336H402.723L390.051 59.72L403.491 77H398.307Z" fill="#340300"/>
<path d="M162.537 45.256L161.551 46.996C161.559 47.0002 161.566 47.0043 161.573 47.0084L162.537 45.256ZM168.553 51.272L170.3 50.2983L170.3 50.2983L168.553 51.272ZM168.553 69.128L170.3 70.1017L170.3 70.1017L168.553 69.128ZM162.537 75.208L163.514 76.9535L163.523 76.948L162.537 75.208ZM146.537 75.656L145.601 77.4236C145.615 77.4308 145.629 77.4379 145.643 77.4449L146.537 75.656ZM141.161 70.664L142.84 69.5775C142.359 68.8333 141.445 68.4948 140.595 68.7459C139.745 68.9969 139.161 69.7776 139.161 70.664H141.161ZM141.161 89.416V91.416C142.266 91.416 143.161 90.5206 143.161 89.416H141.161ZM136.617 89.416H134.617C134.617 90.5206 135.513 91.416 136.617 91.416V89.416ZM136.617 43.336V41.336C135.513 41.336 134.617 42.2314 134.617 43.336H136.617ZM140.969 43.336H142.969C142.969 42.2314 142.074 41.336 140.969 41.336V43.336ZM140.969 49.992H138.969C138.969 50.8868 139.564 51.6727 140.425 51.9164C141.286 52.1601 142.204 51.8023 142.673 51.0402L140.969 49.992ZM146.345 44.872L145.411 43.1036C145.406 43.1061 145.402 43.1086 145.397 43.1111L146.345 44.872ZM160.041 71.688L161.013 73.4363C161.022 73.4309 161.032 73.4253 161.042 73.4197L160.041 71.688ZM164.521 67.016L162.771 66.0479C162.766 66.0575 162.761 66.0671 162.756 66.0768L164.521 67.016ZM164.521 53.384L162.756 54.3232C162.764 54.3383 162.772 54.3533 162.78 54.3681L164.521 53.384ZM160.041 48.712L161.042 46.9803L161.042 46.9803L160.041 48.712ZM147.177 48.712L146.177 46.9803C146.171 46.9835 146.165 46.9868 146.16 46.9901L147.177 48.712ZM142.697 53.384L140.947 52.4159C140.945 52.4202 140.942 52.4246 140.94 52.429L142.697 53.384ZM142.697 67.016L140.932 67.9552C140.937 67.9649 140.942 67.9745 140.947 67.9841L142.697 67.016ZM147.177 71.688L146.16 73.4099C146.175 73.4189 146.19 73.4277 146.206 73.4363L147.177 71.688ZM153.961 45.08C156.799 45.08 159.314 45.7282 161.551 46.996L163.523 43.516C160.641 41.8825 157.438 41.08 153.961 41.08V45.08ZM161.573 47.0084C163.798 48.2317 165.535 49.9641 166.806 52.2457L170.3 50.2983C168.671 47.3746 166.397 45.0962 163.501 43.5036L161.573 47.0084ZM166.806 52.2457C168.072 54.5171 168.729 57.1402 168.729 60.168H172.729C172.729 56.5398 171.936 53.2322 170.3 50.2983L166.806 52.2457ZM168.729 60.168C168.729 63.2433 168.07 65.8866 166.806 68.1543L170.3 70.1017C171.938 67.164 172.729 63.8341 172.729 60.168H168.729ZM166.806 68.1543C165.532 70.4408 163.788 72.2005 161.551 73.468L163.523 76.948C166.407 75.3141 168.673 73.0205 170.3 70.1017L166.806 68.1543ZM161.561 73.4625C159.374 74.6859 156.858 75.32 153.961 75.32V79.32C157.465 79.32 160.666 78.5461 163.514 76.9535L161.561 73.4625ZM153.961 75.32C151.509 75.32 149.346 74.8241 147.432 73.8671L145.643 77.4449C148.166 78.7066 150.952 79.32 153.961 79.32V75.32ZM147.473 73.8884C145.615 72.9047 144.073 71.4824 142.84 69.5775L139.482 71.7505C141.066 74.1976 143.108 76.1032 145.601 77.4236L147.473 73.8884ZM139.161 70.664V89.416H143.161V70.664H139.161ZM141.161 87.416H136.617V91.416H141.161V87.416ZM138.617 89.416V43.336H134.617V89.416H138.617ZM136.617 45.336H140.969V41.336H136.617V45.336ZM138.969 43.336V49.992H142.969V43.336H138.969ZM142.673 51.0402C143.86 49.1108 145.396 47.6548 147.293 46.6329L145.397 43.1111C142.858 44.4785 140.809 46.4358 139.266 48.9438L142.673 51.0402ZM147.279 46.6404C149.225 45.6128 151.437 45.08 153.961 45.08V41.08C150.853 41.08 147.989 41.7419 145.411 43.1036L147.279 46.6404ZM153.641 75.288C156.304 75.288 158.775 74.6793 161.013 73.4363L159.07 69.9397C157.467 70.83 155.672 71.288 153.641 71.288V75.288ZM161.042 73.4197C163.294 72.1183 165.049 70.2827 166.287 67.9552L162.756 66.0768C161.86 67.76 160.628 69.039 159.041 69.9563L161.042 73.4197ZM166.271 67.9841C167.563 65.649 168.185 63.0263 168.185 60.168H164.185C164.185 62.4297 163.698 64.3723 162.771 66.0479L166.271 67.9841ZM168.185 60.168C168.185 57.3106 167.563 54.7016 166.262 52.3999L162.78 54.3681C163.698 55.9918 164.185 57.9054 164.185 60.168H168.185ZM166.287 52.4448C165.049 50.1173 163.294 48.2817 161.042 46.9803L159.041 50.4437C160.628 51.361 161.86 52.64 162.756 54.3232L166.287 52.4448ZM161.042 46.9803C158.8 45.6849 156.318 45.048 153.641 45.048V49.048C155.658 49.048 157.443 49.5205 159.041 50.4437L161.042 46.9803ZM153.641 45.048C150.929 45.048 148.424 45.6816 146.177 46.9803L148.178 50.4437C149.77 49.5237 151.575 49.048 153.641 49.048V45.048ZM146.16 46.9901C143.96 48.2903 142.22 50.115 140.947 52.4159L144.447 54.3521C145.393 52.6423 146.64 51.3524 148.195 50.4339L146.16 46.9901ZM140.94 52.429C139.692 54.7251 139.097 57.3236 139.097 60.168H143.097C143.097 57.8924 143.569 55.9682 144.454 54.339L140.94 52.429ZM139.097 60.168C139.097 63.0134 139.692 65.6257 140.932 67.9552L144.463 66.0768C143.569 64.3957 143.097 62.4426 143.097 60.168H139.097ZM140.947 67.9841C142.22 70.285 143.96 72.1097 146.16 73.4099L148.195 69.9661C146.64 69.0476 145.393 67.7577 144.447 66.0479L140.947 67.9841ZM146.206 73.4363C148.449 74.6823 150.943 75.288 153.641 75.288V71.288C151.561 71.288 149.746 70.827 148.149 69.9397L146.206 73.4363ZM184.984 75.144L183.989 76.8787C183.996 76.8829 184.003 76.8869 184.011 76.891L184.984 75.144ZM178.84 69L177.106 69.9953L177.106 69.9953L178.84 69ZM178.84 51.336L177.106 50.3407L177.106 50.3407L178.84 51.336ZM184.984 45.256L184.011 43.509L184.011 43.509L184.984 45.256ZM202.52 45.256L203.494 43.509L203.494 43.509L202.52 45.256ZM208.6 51.336L206.853 52.3097C206.857 52.3169 206.861 52.3242 206.866 52.3313L208.6 51.336ZM208.6 69L206.866 68.0047C206.861 68.0118 206.857 68.0191 206.853 68.0263L208.6 69ZM202.52 75.144L203.494 76.891C203.501 76.8869 203.508 76.8829 203.516 76.8787L202.52 75.144ZM200.152 71.688L201.14 73.4269C201.144 73.4245 201.149 73.4221 201.153 73.4197L200.152 71.688ZM204.632 67.016L206.398 67.9552L206.398 67.9552L204.632 67.016ZM204.632 53.32L206.398 52.3808L206.398 52.3808L204.632 53.32ZM200.152 48.712L199.135 50.4339C199.15 50.4429 199.165 50.4517 199.181 50.4603L200.152 48.712ZM187.288 48.712L188.276 50.4509C188.28 50.4485 188.285 50.4461 188.289 50.4437L187.288 48.712ZM182.808 53.32L181.058 52.3519C181.053 52.3615 181.048 52.3711 181.043 52.3808L182.808 53.32ZM182.808 67.016L181.043 67.9552C181.048 67.9649 181.053 67.9745 181.058 67.9841L182.808 67.016ZM187.288 71.688L186.271 73.4099C186.286 73.4189 186.301 73.4277 186.317 73.4363L187.288 71.688ZM193.752 75.32C190.82 75.32 188.237 74.6673 185.958 73.397L184.011 76.891C186.937 78.522 190.2 79.32 193.752 79.32V75.32ZM185.98 73.4093C183.685 72.0925 181.892 70.2997 180.575 68.0047L177.106 69.9953C178.775 72.9057 181.079 75.2089 183.989 76.8787L185.98 73.4093ZM180.575 68.0047C179.272 65.7332 178.6 63.1381 178.6 60.168H174.6C174.6 63.7685 175.422 67.0615 177.106 69.9953L180.575 68.0047ZM178.6 60.168C178.6 57.1979 179.272 54.6028 180.575 52.3313L177.106 50.3407C175.422 53.2745 174.6 56.5675 174.6 60.168H178.6ZM180.575 52.3313C181.889 50.0413 183.675 48.2755 185.958 47.003L184.011 43.509C181.088 45.1378 178.778 47.4254 177.106 50.3407L180.575 52.3313ZM185.958 47.003C188.237 45.7327 190.82 45.08 193.752 45.08V41.08C190.2 41.08 186.937 41.878 184.011 43.509L185.958 47.003ZM193.752 45.08C196.685 45.08 199.267 45.7327 201.547 47.003L203.494 43.509C200.568 41.878 197.305 41.08 193.752 41.08V45.08ZM201.547 47.003C203.825 48.2727 205.584 50.0316 206.853 52.3097L210.347 50.3623C208.716 47.435 206.421 45.1406 203.494 43.509L201.547 47.003ZM206.866 52.3313C208.169 54.6028 208.84 57.1979 208.84 60.168H212.84C212.84 56.5675 212.018 53.2745 210.335 50.3407L206.866 52.3313ZM208.84 60.168C208.84 63.1381 208.169 65.7332 206.866 68.0047L210.335 69.9953C212.018 67.0615 212.84 63.7685 212.84 60.168H208.84ZM206.853 68.0263C205.581 70.3094 203.815 72.0953 201.525 73.4093L203.516 76.8787C206.431 75.206 208.718 72.8959 210.347 69.9737L206.853 68.0263ZM201.547 73.397C199.267 74.6673 196.685 75.32 193.752 75.32V79.32C197.305 79.32 200.568 78.522 203.494 76.891L201.547 73.397ZM193.752 75.288C196.45 75.288 198.931 74.6825 201.14 73.4269L199.164 69.9491C197.619 70.8269 195.833 71.288 193.752 71.288V75.288ZM201.153 73.4197C203.405 72.1183 205.16 70.2827 206.398 67.9552L202.867 66.0768C201.971 67.76 200.739 69.039 199.152 69.9563L201.153 73.4197ZM206.398 67.9552C207.637 65.6257 208.232 63.0134 208.232 60.168H204.232C204.232 62.4426 203.761 64.3957 202.867 66.0768L206.398 67.9552ZM208.232 60.168C208.232 57.3226 207.637 54.7103 206.398 52.3808L202.867 54.2592C203.761 55.9403 204.232 57.8934 204.232 60.168H208.232ZM206.398 52.3808C205.157 50.047 203.393 48.2244 201.124 46.9637L199.181 50.4603C200.752 51.3329 201.975 52.5823 202.867 54.2592L206.398 52.3808ZM201.17 46.9901C198.955 45.6816 196.464 45.048 193.752 45.048V49.048C195.819 49.048 197.595 49.5238 199.135 50.4339L201.17 46.9901ZM193.752 45.048C191.04 45.048 188.535 45.6816 186.288 46.9803L188.289 50.4437C189.881 49.5237 191.686 49.048 193.752 49.048V45.048ZM186.3 46.9731C184.083 48.2329 182.334 50.045 181.058 52.3519L184.558 54.2881C185.501 52.5843 186.739 51.3244 188.276 50.4509L186.3 46.9731ZM181.043 52.3808C179.803 54.7103 179.208 57.3226 179.208 60.168H183.208C183.208 57.8934 183.68 55.9403 184.574 54.2592L181.043 52.3808ZM179.208 60.168C179.208 63.0134 179.803 65.6257 181.043 67.9552L184.574 66.0768C183.68 64.3957 183.208 62.4426 183.208 60.168H179.208ZM181.058 67.9841C182.331 70.285 184.071 72.1097 186.271 73.4099L188.306 69.9661C186.751 69.0476 185.504 67.7577 184.558 66.0479L181.058 67.9841ZM186.317 73.4363C188.56 74.6823 191.054 75.288 193.752 75.288V71.288C191.672 71.288 189.857 70.827 188.26 69.9397L186.317 73.4363ZM232.597 60.104L234.157 58.8517C233.81 58.4201 233.3 58.1514 232.748 58.1097C232.196 58.068 231.651 58.257 231.244 58.6317L232.597 60.104ZM224.661 67.4L223.308 65.9277C222.896 66.3064 222.661 66.8404 222.661 67.4H224.661ZM224.661 77V79C225.766 79 226.661 78.1046 226.661 77H224.661ZM220.117 77H218.117C218.117 78.1046 219.013 79 220.117 79V77ZM220.117 29.512V27.512C219.013 27.512 218.117 28.4074 218.117 29.512H220.117ZM224.661 29.512H226.661C226.661 28.4074 225.766 27.512 224.661 27.512V29.512ZM224.661 61.704H222.661C222.661 62.4966 223.129 63.2144 223.855 63.5341C224.58 63.8538 225.426 63.715 226.011 63.1803L224.661 61.704ZM244.757 43.336V41.336C244.258 41.336 243.777 41.5228 243.408 41.8597L244.757 43.336ZM250.389 43.336L251.771 44.782C252.362 44.2174 252.55 43.3502 252.246 42.5917C251.941 41.8332 251.206 41.336 250.389 41.336V43.336ZM235.989 57.096L234.608 55.65C233.861 56.3632 233.78 57.5271 234.421 58.3368L235.989 57.096ZM251.733 77V79C252.5 79 253.199 78.5616 253.533 77.8713C253.868 77.1811 253.778 76.3607 253.302 75.7592L251.733 77ZM246.165 77L244.606 78.2523C244.985 78.725 245.559 79 246.165 79V77ZM231.244 58.6317L223.308 65.9277L226.015 68.8723L233.951 61.5763L231.244 58.6317ZM222.661 67.4V77H226.661V67.4H222.661ZM224.661 75H220.117V79H224.661V75ZM222.117 77V29.512H218.117V77H222.117ZM220.117 31.512H224.661V27.512H220.117V31.512ZM222.661 29.512V61.704H226.661V29.512H222.661ZM226.011 63.1803L246.107 44.8123L243.408 41.8597L223.312 60.2277L226.011 63.1803ZM244.757 45.336H250.389V41.336H244.757V45.336ZM249.008 41.89L234.608 55.65L237.371 58.542L251.771 44.782L249.008 41.89ZM234.421 58.3368L250.165 78.2408L253.302 75.7592L237.558 55.8552L234.421 58.3368ZM251.733 75H246.165V79H251.733V75ZM247.725 75.7477L234.157 58.8517L231.038 61.3563L244.606 78.2523L247.725 75.7477ZM277.34 72.2L278.106 74.0475C278.113 74.0445 278.12 74.0414 278.128 74.0383L277.34 72.2ZM281.884 68.872L283.393 67.5596C283.011 67.1203 282.456 66.8692 281.874 66.872C281.292 66.8748 280.74 67.1311 280.362 67.5741L281.884 68.872ZM284.444 71.816L285.98 73.0964C286.608 72.3425 286.597 71.2442 285.953 70.5036L284.444 71.816ZM278.876 75.912L279.655 77.7539L279.655 77.7539L278.876 75.912ZM262.3 75.144L261.328 76.8923C261.336 76.8963 261.343 76.9002 261.35 76.904L262.3 75.144ZM256.028 69L254.293 69.9953L254.293 69.9953L256.028 69ZM255.9 51.336L254.153 50.3623C254.149 50.3696 254.145 50.377 254.141 50.3844L255.9 51.336ZM261.852 45.256L260.853 43.5231L260.853 43.5231L261.852 45.256ZM278.492 45.128L277.499 46.8645C277.504 46.867 277.508 46.8695 277.513 46.872L278.492 45.128ZM284.252 50.824L282.521 51.8261C282.525 51.8336 282.53 51.8411 282.534 51.8486L284.252 50.824ZM286.556 59.144L286.937 61.1072C287.898 60.9205 288.582 60.0669 288.555 59.0892L286.556 59.144ZM258.908 64.52L258.526 62.5568C257.968 62.6654 257.482 63.0067 257.19 63.4953C256.899 63.9839 256.829 64.5735 256.999 65.1165L258.908 64.52ZM263.516 70.984L262.356 72.6136C262.368 72.622 262.38 72.6303 262.392 72.6384L263.516 70.984ZM264.092 48.648L265.097 50.377C265.101 50.3746 265.105 50.3723 265.109 50.3699L264.092 48.648ZM259.74 53.192L257.983 52.237C257.98 52.2416 257.978 52.2462 257.975 52.2508L259.74 53.192ZM258.268 61.256L256.288 61.5388C256.365 62.081 256.662 62.5678 257.108 62.8854C257.554 63.203 258.111 63.3237 258.649 63.2194L258.268 61.256ZM282.012 56.648L282.393 58.6114C283.468 58.4027 284.175 57.3679 283.979 56.2902L282.012 56.648ZM278.108 49.736L276.789 51.2393C276.794 51.2444 276.8 51.2495 276.806 51.2545L278.108 49.736ZM271.58 75.288C273.906 75.288 276.09 74.8835 278.106 74.0475L276.574 70.3525C275.091 70.9672 273.435 71.288 271.58 71.288V75.288ZM278.128 74.0383C280.196 73.1519 281.964 71.8602 283.405 70.1699L280.362 67.5741C279.329 68.7852 278.068 69.7121 276.552 70.3617L278.128 74.0383ZM280.375 70.1844L282.935 73.1284L285.953 70.5036L283.393 67.5596L280.375 70.1844ZM282.907 70.5356C281.625 72.0746 280.032 73.2514 278.096 74.0701L279.655 77.7539C282.157 76.6953 284.276 75.1414 285.98 73.0964L282.907 70.5356ZM278.096 74.0701C276.151 74.893 273.967 75.32 271.516 75.32V79.32C274.44 79.32 277.163 78.8084 279.655 77.7539L278.096 74.0701ZM271.516 75.32C268.347 75.32 265.609 74.6574 263.25 73.384L261.35 76.904C264.366 78.5319 267.772 79.32 271.516 79.32V75.32ZM263.271 73.3957C260.893 72.0746 259.07 70.2834 257.762 68.0047L254.293 69.9953C255.972 72.9219 258.33 75.2268 261.328 76.8923L263.271 73.3957ZM257.762 68.0047C256.459 65.7332 255.788 63.1381 255.788 60.168H251.788C251.788 63.7685 252.61 67.0615 254.293 69.9953L257.762 68.0047ZM255.788 60.168C255.788 57.1776 256.426 54.5669 257.659 52.2876L254.141 50.3844C252.558 53.3105 251.788 56.5877 251.788 60.168H255.788ZM257.647 52.3097C258.926 50.0147 260.655 48.2541 262.85 46.9889L260.853 43.5231C258.014 45.1593 255.775 47.452 254.153 50.3623L257.647 52.3097ZM262.85 46.9889C265.034 45.7306 267.542 45.08 270.428 45.08V41.08C266.914 41.08 263.704 41.8801 260.853 43.5231L262.85 46.9889ZM270.428 45.08C273.097 45.08 275.438 45.6864 277.499 46.8645L279.484 43.3915C276.767 41.8389 273.732 41.08 270.428 41.08V45.08ZM277.513 46.872C279.63 48.0604 281.291 49.7018 282.521 51.8261L285.983 49.8219C284.396 47.0822 282.218 44.9262 279.471 43.384L277.513 46.872ZM282.534 51.8486C283.792 53.9579 284.48 56.391 284.557 59.1988L288.555 59.0892C288.461 55.6677 287.613 52.5541 285.969 49.7994L282.534 51.8486ZM286.174 57.1808L258.526 62.5568L259.289 66.4832L286.937 61.1072L286.174 57.1808ZM256.999 65.1165C257.975 68.2416 259.763 70.7683 262.356 72.6136L264.675 69.3544C262.831 68.0424 261.547 66.2598 260.817 63.9234L256.999 65.1165ZM262.392 72.6384C265.03 74.43 268.122 75.288 271.58 75.288V71.288C268.808 71.288 266.525 70.61 264.64 69.3296L262.392 72.6384ZM270.428 44.984C267.751 44.984 265.283 45.6209 263.074 46.9261L265.109 50.3699C266.655 49.4565 268.411 48.984 270.428 48.984V44.984ZM263.087 46.919C260.918 48.1797 259.215 49.97 257.983 52.237L261.497 54.147C262.398 52.4887 263.596 51.2496 265.097 50.377L263.087 46.919ZM257.975 52.2508C256.774 54.503 256.204 57.0542 256.204 59.848H260.204C260.204 57.6072 260.658 55.721 261.504 54.1332L257.975 52.2508ZM256.204 59.848C256.204 60.5022 256.224 61.0911 256.288 61.5388L260.248 60.9732C260.226 60.8236 260.204 60.4738 260.204 59.848H256.204ZM258.649 63.2194L282.393 58.6114L281.631 54.6846L257.887 59.2926L258.649 63.2194ZM283.979 56.2902C283.389 53.0416 281.863 50.3209 279.409 48.2175L276.806 51.2545C278.533 52.7351 279.611 54.6224 280.044 57.0058L283.979 56.2902ZM279.427 48.2327C276.938 46.0484 273.896 44.984 270.428 44.984V48.984C273.018 48.984 275.096 49.7543 276.789 51.2393L279.427 48.2327ZM326.525 29.512H328.525C328.525 28.4074 327.629 27.512 326.525 27.512V29.512ZM326.525 77V79C327.629 79 328.525 78.1046 328.525 77H326.525ZM322.173 77H320.173C320.173 78.1046 321.068 79 322.173 79V77ZM322.173 70.344H324.173C324.173 69.4461 323.574 68.6582 322.709 68.4173C321.844 68.1764 320.925 68.5416 320.461 69.3103L322.173 70.344ZM316.733 75.528L315.799 73.7596C315.794 73.7621 315.789 73.7646 315.785 73.7671L316.733 75.528ZM300.605 75.144L301.591 73.404L301.591 73.404L300.605 75.144ZM294.589 69.064L296.336 68.0903L296.336 68.0903L294.589 69.064ZM294.589 51.272L296.336 52.2457L296.336 52.2457L294.589 51.272ZM300.605 45.256L301.569 47.0084C301.576 47.0043 301.583 47.0002 301.591 46.996L300.605 45.256ZM316.541 44.808L315.605 46.5756C315.619 46.5828 315.632 46.5899 315.646 46.5969L316.541 44.808ZM321.981 49.736L320.302 50.8225C320.783 51.5667 321.697 51.9052 322.547 51.6541C323.397 51.4031 323.981 50.6224 323.981 49.736H321.981ZM321.981 29.512V27.512C320.876 27.512 319.981 28.4074 319.981 29.512H321.981ZM315.901 71.688L316.889 73.4269C316.893 73.4245 316.897 73.4221 316.901 73.4197L315.901 71.688ZM320.381 67.016L318.631 66.0479C318.625 66.0575 318.62 66.0671 318.615 66.0768L320.381 67.016ZM320.381 53.32L318.615 54.2592C318.62 54.2689 318.625 54.2785 318.631 54.2881L320.381 53.32ZM315.901 48.712L314.883 50.4339C314.899 50.4429 314.914 50.4517 314.929 50.4603L315.901 48.712ZM303.101 48.712L304.089 50.4509C304.093 50.4485 304.097 50.4461 304.101 50.4437L303.101 48.712ZM298.621 53.32L296.871 52.3519C296.865 52.3615 296.86 52.3711 296.855 52.3808L298.621 53.32ZM298.621 67.016L296.855 67.9552C296.86 67.9649 296.865 67.9745 296.871 67.9841L298.621 67.016ZM303.101 71.688L302.083 73.4099C302.099 73.4189 302.114 73.4277 302.129 73.4363L303.101 71.688ZM324.525 29.512V77H328.525V29.512H324.525ZM326.525 75H322.173V79H326.525V75ZM324.173 77V70.344H320.173V77H324.173ZM320.461 69.3103C319.277 71.2713 317.728 72.7404 315.799 73.7596L317.667 77.2964C320.26 75.9263 322.338 73.9393 323.885 71.3777L320.461 69.3103ZM315.785 73.7671C313.89 74.7871 311.705 75.32 309.181 75.32V79.32C312.288 79.32 315.138 78.6583 317.681 77.2889L315.785 73.7671ZM309.181 75.32C306.343 75.32 303.828 74.6718 301.591 73.404L299.619 76.884C302.501 78.5175 305.704 79.32 309.181 79.32V75.32ZM301.591 73.404C299.354 72.1365 297.61 70.3768 296.336 68.0903L292.842 70.0377C294.469 72.9565 296.735 75.2501 299.619 76.884L301.591 73.404ZM296.336 68.0903C295.07 65.8189 294.413 63.1958 294.413 60.168H290.413C290.413 63.7962 291.206 67.1038 292.842 70.0377L296.336 68.0903ZM294.413 60.168C294.413 57.1402 295.07 54.5171 296.336 52.2457L292.842 50.2983C291.206 53.2322 290.413 56.5398 290.413 60.168H294.413ZM296.336 52.2457C297.607 49.9641 299.344 48.2317 301.569 47.0084L299.641 43.5036C296.745 45.0962 294.471 47.3746 292.842 50.2983L296.336 52.2457ZM301.591 46.996C303.828 45.7282 306.343 45.08 309.181 45.08V41.08C305.704 41.08 302.501 41.8825 299.619 43.516L301.591 46.996ZM309.181 45.08C311.621 45.08 313.748 45.5923 315.605 46.5756L317.477 43.0404C314.982 41.7197 312.201 41.08 309.181 41.08V45.08ZM315.646 46.5969C317.531 47.5391 319.079 48.9325 320.302 50.8225L323.66 48.6495C322.067 46.1875 319.988 44.2956 317.435 43.0191L315.646 46.5969ZM323.981 49.736V29.512H319.981V49.736H323.981ZM321.981 31.512H326.525V27.512H321.981V31.512ZM309.565 75.288C312.227 75.288 314.684 74.6794 316.889 73.4269L314.913 69.9491C313.362 70.83 311.596 71.288 309.565 71.288V75.288ZM316.901 73.4197C319.154 72.1183 320.908 70.2827 322.146 67.9552L318.615 66.0768C317.72 67.76 316.488 69.039 314.9 69.9563L316.901 73.4197ZM322.131 67.9841C323.423 65.649 324.045 63.0263 324.045 60.168H320.045C320.045 62.4297 319.558 64.3723 318.631 66.0479L322.131 67.9841ZM324.045 60.168C324.045 57.3097 323.423 54.687 322.131 52.3519L318.631 54.2881C319.558 55.9637 320.045 57.9063 320.045 60.168H324.045ZM322.146 52.3808C320.905 50.047 319.141 48.2244 316.872 46.9637L314.929 50.4603C316.5 51.3329 317.723 52.5823 318.615 54.2592L322.146 52.3808ZM316.918 46.9901C314.709 45.6849 312.241 45.048 309.565 45.048V49.048C311.582 49.048 313.338 49.5205 314.883 50.4339L316.918 46.9901ZM309.565 45.048C306.852 45.048 304.348 45.6816 302.1 46.9803L304.101 50.4437C305.694 49.5237 307.499 49.048 309.565 49.048V45.048ZM302.113 46.9731C299.895 48.2329 298.147 50.045 296.871 52.3519L300.371 54.2881C301.313 52.5843 302.551 51.3244 304.089 50.4509L302.113 46.9731ZM296.855 52.3808C295.616 54.7103 295.021 57.3226 295.021 60.168H299.021C299.021 57.8934 299.492 55.9403 300.386 54.2592L296.855 52.3808ZM295.021 60.168C295.021 63.0134 295.616 65.6257 296.855 67.9552L300.386 66.0768C299.492 64.3957 299.021 62.4426 299.021 60.168H295.021ZM296.871 67.9841C298.143 70.285 299.883 72.1097 302.083 73.4099L304.118 69.9661C302.564 69.0476 301.317 67.7577 300.371 66.0479L296.871 67.9841ZM302.129 73.4363C304.372 74.6823 306.866 75.288 309.565 75.288V71.288C307.485 71.288 305.669 70.827 304.072 69.9397L302.129 73.4363ZM359.34 72.2L360.106 74.0475C360.113 74.0445 360.12 74.0414 360.128 74.0383L359.34 72.2ZM363.884 68.872L365.393 67.5596C365.011 67.1203 364.456 66.8692 363.874 66.872C363.292 66.8748 362.74 67.1311 362.362 67.5741L363.884 68.872ZM366.444 71.816L367.98 73.0964C368.608 72.3425 368.597 71.2442 367.953 70.5036L366.444 71.816ZM360.876 75.912L361.655 77.7539L361.655 77.7539L360.876 75.912ZM344.3 75.144L343.328 76.8923C343.336 76.8963 343.343 76.9002 343.35 76.904L344.3 75.144ZM338.028 69L336.293 69.9953L336.293 69.9953L338.028 69ZM337.9 51.336L336.153 50.3623C336.149 50.3696 336.145 50.377 336.141 50.3844L337.9 51.336ZM343.852 45.256L342.853 43.5231L342.853 43.5231L343.852 45.256ZM360.492 45.128L359.499 46.8645C359.504 46.867 359.508 46.8695 359.513 46.872L360.492 45.128ZM366.252 50.824L364.521 51.8261C364.525 51.8336 364.53 51.8411 364.534 51.8486L366.252 50.824ZM368.556 59.144L368.937 61.1072C369.898 60.9205 370.582 60.0669 370.555 59.0892L368.556 59.144ZM340.908 64.52L340.526 62.5568C339.968 62.6654 339.482 63.0067 339.19 63.4953C338.899 63.9839 338.829 64.5735 338.999 65.1165L340.908 64.52ZM345.516 70.984L344.356 72.6136C344.368 72.622 344.38 72.6303 344.392 72.6384L345.516 70.984ZM346.092 48.648L347.097 50.377C347.101 50.3746 347.105 50.3723 347.109 50.3699L346.092 48.648ZM341.74 53.192L339.983 52.237C339.98 52.2416 339.978 52.2462 339.975 52.2508L341.74 53.192ZM340.268 61.256L338.288 61.5388C338.365 62.081 338.662 62.5678 339.108 62.8854C339.554 63.203 340.111 63.3237 340.649 63.2194L340.268 61.256ZM364.012 56.648L364.393 58.6114C365.468 58.4027 366.175 57.3679 365.979 56.2902L364.012 56.648ZM360.108 49.736L358.789 51.2393C358.794 51.2444 358.8 51.2495 358.806 51.2545L360.108 49.736ZM353.58 75.288C355.906 75.288 358.09 74.8835 360.106 74.0475L358.574 70.3525C357.091 70.9672 355.435 71.288 353.58 71.288V75.288ZM360.128 74.0383C362.196 73.1519 363.964 71.8602 365.405 70.1699L362.362 67.5741C361.329 68.7852 360.068 69.7121 358.552 70.3617L360.128 74.0383ZM362.375 70.1844L364.935 73.1284L367.953 70.5036L365.393 67.5596L362.375 70.1844ZM364.907 70.5356C363.625 72.0746 362.032 73.2514 360.096 74.0701L361.655 77.7539C364.157 76.6953 366.276 75.1414 367.98 73.0964L364.907 70.5356ZM360.096 74.0701C358.151 74.893 355.967 75.32 353.516 75.32V79.32C356.44 79.32 359.163 78.8084 361.655 77.7539L360.096 74.0701ZM353.516 75.32C350.347 75.32 347.609 74.6574 345.25 73.384L343.35 76.904C346.366 78.5319 349.772 79.32 353.516 79.32V75.32ZM345.271 73.3957C342.893 72.0746 341.07 70.2834 339.762 68.0047L336.293 69.9953C337.972 72.9219 340.33 75.2268 343.328 76.8923L345.271 73.3957ZM339.762 68.0047C338.459 65.7332 337.788 63.1381 337.788 60.168H333.788C333.788 63.7685 334.61 67.0615 336.293 69.9953L339.762 68.0047ZM337.788 60.168C337.788 57.1776 338.426 54.5669 339.659 52.2876L336.141 50.3844C334.558 53.3105 333.788 56.5877 333.788 60.168H337.788ZM339.647 52.3097C340.926 50.0147 342.655 48.2541 344.85 46.9889L342.853 43.5231C340.014 45.1593 337.775 47.452 336.153 50.3623L339.647 52.3097ZM344.85 46.9889C347.034 45.7306 349.542 45.08 352.428 45.08V41.08C348.914 41.08 345.704 41.8801 342.853 43.5231L344.85 46.9889ZM352.428 45.08C355.097 45.08 357.438 45.6864 359.499 46.8645L361.484 43.3915C358.767 41.8389 355.732 41.08 352.428 41.08V45.08ZM359.513 46.872C361.63 48.0604 363.291 49.7018 364.521 51.8261L367.983 49.8219C366.396 47.0822 364.218 44.9262 361.471 43.384L359.513 46.872ZM364.534 51.8486C365.792 53.9579 366.48 56.391 366.557 59.1988L370.555 59.0892C370.461 55.6677 369.613 52.5541 367.969 49.7994L364.534 51.8486ZM368.174 57.1808L340.526 62.5568L341.289 66.4832L368.937 61.1072L368.174 57.1808ZM338.999 65.1165C339.975 68.2416 341.763 70.7683 344.356 72.6136L346.675 69.3544C344.831 68.0424 343.547 66.2598 342.817 63.9234L338.999 65.1165ZM344.392 72.6384C347.03 74.43 350.122 75.288 353.58 75.288V71.288C350.808 71.288 348.525 70.61 346.64 69.3296L344.392 72.6384ZM352.428 44.984C349.751 44.984 347.283 45.6209 345.074 46.9261L347.109 50.3699C348.655 49.4565 350.411 48.984 352.428 48.984V44.984ZM345.087 46.919C342.918 48.1797 341.215 49.97 339.983 52.237L343.497 54.147C344.398 52.4887 345.596 51.2496 347.097 50.377L345.087 46.919ZM339.975 52.2508C338.774 54.503 338.204 57.0542 338.204 59.848H342.204C342.204 57.6072 342.658 55.721 343.504 54.1332L339.975 52.2508ZM338.204 59.848C338.204 60.5022 338.224 61.0911 338.288 61.5388L342.248 60.9732C342.226 60.8236 342.204 60.4738 342.204 59.848H338.204ZM340.649 63.2194L364.393 58.6114L363.631 54.6846L339.887 59.2926L340.649 63.2194ZM365.979 56.2902C365.389 53.0416 363.863 50.3209 361.409 48.2175L358.806 51.2545C360.533 52.7351 361.611 54.6224 362.044 57.0058L365.979 56.2902ZM361.427 48.2327C358.938 46.0484 355.896 44.984 352.428 44.984V48.984C355.018 48.984 357.096 49.7543 358.789 51.2393L361.427 48.2327ZM398.307 77L396.714 78.2092C397.092 78.7074 397.682 79 398.307 79V77ZM387.619 62.92L389.212 61.7108C388.835 61.2134 388.247 60.9209 387.622 60.92C386.998 60.9191 386.409 61.2099 386.03 61.7062L387.619 62.92ZM376.867 77V79C377.491 79 378.078 78.7093 378.457 78.2138L376.867 77ZM371.747 77L370.163 75.7794C369.698 76.3832 369.616 77.1989 369.953 77.8829C370.289 78.5668 370.985 79 371.747 79V77ZM385.059 59.72L386.644 60.9406C387.199 60.2201 387.198 59.2158 386.641 58.4964L385.059 59.72ZM372.387 43.336V41.336C371.624 41.336 370.928 41.77 370.592 42.4549C370.256 43.1397 370.338 43.9561 370.805 44.5596L372.387 43.336ZM377.507 43.336L379.094 42.1188C378.716 41.6253 378.129 41.336 377.507 41.336V43.336ZM387.619 56.52L386.032 57.7372C386.411 58.2307 386.997 58.52 387.619 58.52C388.241 58.52 388.828 58.2307 389.206 57.7372L387.619 56.52ZM397.731 43.336V41.336C397.109 41.336 396.523 41.6253 396.144 42.1188L397.731 43.336ZM402.723 43.336L404.305 44.5596C404.772 43.9561 404.855 43.1397 404.519 42.4549C404.183 41.77 403.486 41.336 402.723 41.336V43.336ZM390.051 59.72L388.469 58.4964C387.911 59.2185 387.912 60.2273 388.473 60.9479L390.051 59.72ZM403.491 77V79C404.255 79 404.952 78.5649 405.288 77.8787C405.623 77.1925 405.539 76.3751 405.07 75.7721L403.491 77ZM399.9 75.7908L389.212 61.7108L386.026 64.1292L396.714 78.2092L399.9 75.7908ZM386.03 61.7062L375.278 75.7862L378.457 78.2138L389.209 64.1338L386.03 61.7062ZM376.867 75H371.747V79H376.867V75ZM373.332 78.2206L386.644 60.9406L383.475 58.4994L370.163 75.7794L373.332 78.2206ZM386.641 58.4964L373.969 42.1124L370.805 44.5596L383.477 60.9436L386.641 58.4964ZM372.387 45.336H377.507V41.336H372.387V45.336ZM375.92 44.5532L386.032 57.7372L389.206 55.3028L379.094 42.1188L375.92 44.5532ZM389.206 57.7372L399.318 44.5532L396.144 42.1188L386.032 55.3028L389.206 57.7372ZM397.731 45.336H402.723V41.336H397.731V45.336ZM401.141 42.1124L388.469 58.4964L391.633 60.9436L404.305 44.5596L401.141 42.1124ZM388.473 60.9479L401.913 78.2279L405.07 75.7721L391.63 58.4921L388.473 60.9479ZM403.491 75H398.307V79H403.491V75Z" fill="#340300"/>
<g clip-path="url(#clip0_124_2331)">
<g filter="url(#filter0_f_124_2331)">
<path d="M44.1485 35.3406C41.6362 39.5587 39.9618 44.2199 39.221 49.0582C38.4803 53.8965 38.6876 58.8169 39.8313 63.5386C40.9747 68.2607 43.0323 72.6911 45.8862 76.5775C48.7398 80.4644 52.3342 83.7306 56.4637 86.1902C60.5933 88.6498 65.1772 90.2547 69.9541 90.9125C74.7307 91.5709 79.606 91.2698 84.3026 90.026C88.9994 88.783 93.4246 86.6218 97.3261 83.666C101.227 80.71 104.528 77.0178 107.041 72.7997L85.0284 59.689C84.2747 60.9545 83.2844 62.0621 82.114 62.9489C80.9436 63.8356 79.616 64.484 78.2071 64.857C76.7981 65.23 75.3354 65.3204 73.9024 65.1229C72.4694 64.9255 71.0942 64.4441 69.8553 63.7062C68.6164 62.9683 67.5382 61.9884 66.6821 60.8224C65.8259 59.6565 65.2087 58.3273 64.8656 56.9107C64.5225 55.4942 64.4603 54.018 64.6825 52.5666C64.9048 51.1151 65.4071 49.7168 66.1608 48.4513L44.1485 35.3406Z" fill="#F0F2F2"/>
<mask id="mask0_124_2331" style="mask-type:alpha" maskUnits="userSpaceOnUse" x="36" y="32" width="74" height="62">
<path d="M44.1485 35.3406C41.6362 39.5587 39.9618 44.2199 39.221 49.0582C38.4803 53.8965 38.6876 58.8169 39.8313 63.5386C40.9747 68.2607 43.0323 72.6911 45.8862 76.5775C48.7398 80.4644 52.3342 83.7306 56.4637 86.1902C60.5933 88.6498 65.1772 90.2547 69.9541 90.9125C74.7307 91.5709 79.606 91.2698 84.3026 90.026C88.9994 88.783 93.4246 86.6218 97.3261 83.666C101.227 80.71 104.528 77.0178 107.041 72.7997L85.0284 59.689C84.2747 60.9545 83.2844 62.0621 82.114 62.9489C80.9436 63.8356 79.616 64.484 78.2071 64.857C76.7981 65.23 75.3354 65.3204 73.9024 65.1229C72.4694 64.9255 71.0942 64.4441 69.8553 63.7062C68.6164 62.9683 67.5382 61.9884 66.6821 60.8224C65.8259 59.6565 65.2087 58.3273 64.8656 56.9107C64.5225 55.4942 64.4603 54.018 64.6825 52.5666C64.9048 51.1151 65.4071 49.7168 66.1608 48.4513L44.1485 35.3406Z" stroke="#0D0D0D" stroke-width="4"/>
</mask>
<g mask="url(#mask0_124_2331)">
<path d="M44.1485 35.3406C41.6362 39.5587 39.9618 44.2199 39.221 49.0582C38.4803 53.8965 38.6876 58.8169 39.8313 63.5386C40.9747 68.2607 43.0323 72.6911 45.8862 76.5775C48.7398 80.4644 52.3342 83.7306 56.4637 86.1902C60.5933 88.6498 65.1772 90.2547 69.9541 90.9125C74.7307 91.5709 79.606 91.2698 84.3026 90.026C88.9994 88.783 93.4246 86.6218 97.3261 83.666C101.227 80.71 104.528 77.0178 107.041 72.7997L85.0284 59.689C84.2747 60.9545 83.2844 62.0621 82.114 62.9489C80.9436 63.8356 79.616 64.484 78.2071 64.857C76.7981 65.23 75.3354 65.3204 73.9024 65.1229C72.4694 64.9255 71.0942 64.4441 69.8553 63.7062C68.6164 62.9683 67.5382 61.9884 66.6821 60.8224C65.8259 59.6565 65.2087 58.3273 64.8656 56.9107C64.5225 55.4942 64.4603 54.018 64.6825 52.5666C64.9048 51.1151 65.4071 49.7168 66.1608 48.4513L44.1485 35.3406Z" stroke="#340300" stroke-width="4"/>
</g>
</g>
<g filter="url(#filter1_f_124_2331)">
<path d="M107.442 72.1259C109.902 67.9963 111.524 63.4226 112.216 58.6664C112.908 53.9099 112.657 49.0637 111.475 44.4042C110.295 39.745 108.208 35.3642 105.334 31.5114C102.46 27.6587 98.855 24.4098 94.7255 21.9502C90.5959 19.4906 86.0223 17.8684 81.2659 17.1764C76.5094 16.4844 71.6632 16.7359 67.004 17.9167C62.3447 19.0976 57.9637 21.1846 54.111 24.0586C50.2583 26.9326 47.0094 30.5372 44.5498 34.6668L66.5621 47.7775C67.3 46.5386 68.2747 45.4572 69.4305 44.595C70.5863 43.7328 71.9006 43.1067 73.2984 42.7525C74.6961 42.3982 76.15 42.3227 77.5769 42.5303C79.0039 42.738 80.3759 43.2246 81.6148 43.9625C82.8537 44.7004 83.9351 45.675 84.7973 46.8308C85.6595 47.9867 86.2856 49.3009 86.6398 50.6987C86.9941 52.0965 87.0695 53.5504 86.862 54.9773C86.6543 56.4043 86.1677 57.7763 85.4298 59.0152L107.442 72.1259Z" fill="#D8470F"/>
<mask id="mask1_124_2331" style="mask-type:alpha" maskUnits="userSpaceOnUse" x="41" y="14" width="74" height="61">
<path d="M107.442 72.1259C109.902 67.9963 111.524 63.4226 112.216 58.6664C112.908 53.9099 112.657 49.0637 111.475 44.4042C110.295 39.745 108.208 35.3642 105.334 31.5114C102.46 27.6587 98.855 24.4098 94.7255 21.9502C90.5959 19.4906 86.0223 17.8684 81.2659 17.1764C76.5094 16.4844 71.6632 16.7359 67.004 17.9167C62.3447 19.0976 57.9637 21.1846 54.111 24.0586C50.2583 26.9326 47.0094 30.5372 44.5498 34.6668L66.5621 47.7775C67.3 46.5386 68.2747 45.4572 69.4305 44.595C70.5863 43.7328 71.9006 43.1067 73.2984 42.7525C74.6961 42.3982 76.15 42.3227 77.5769 42.5303C79.0039 42.738 80.3759 43.2246 81.6148 43.9625C82.8537 44.7004 83.9351 45.675 84.7973 46.8308C85.6595 47.9867 86.2856 49.3009 86.6398 50.6987C86.9941 52.0965 87.0695 53.5504 86.862 54.9773C86.6543 56.4043 86.1677 57.7763 85.4298 59.0152L107.442 72.1259Z" stroke="#0D0D0D" stroke-width="4"/>
</mask>
<g mask="url(#mask1_124_2331)">
<path d="M107.442 72.1259C109.902 67.9963 111.524 63.4226 112.216 58.6664C112.908 53.9099 112.657 49.0637 111.475 44.4042C110.295 39.745 108.208 35.3642 105.334 31.5114C102.46 27.6587 98.855 24.4098 94.7255 21.9502C90.5959 19.4906 86.0223 17.8684 81.2659 17.1764C76.5094 16.4844 71.6632 16.7359 67.004 17.9167C62.3447 19.0976 57.9637 21.1846 54.111 24.0586C50.2583 26.9326 47.0094 30.5372 44.5498 34.6668L66.5621 47.7775C67.3 46.5386 68.2747 45.4572 69.4305 44.595C70.5863 43.7328 71.9006 43.1067 73.2984 42.7525C74.6961 42.3982 76.15 42.3227 77.5769 42.5303C79.0039 42.738 80.3759 43.2246 81.6148 43.9625C82.8537 44.7004 83.9351 45.675 84.7973 46.8308C85.6595 47.9867 86.2856 49.3009 86.6398 50.6987C86.9941 52.0965 87.0695 53.5504 86.862 54.9773C86.6543 56.4043 86.1677 57.7763 85.4298 59.0152L107.442 72.1259Z" stroke="#340300" stroke-width="4"/>
</g>
</g>
<g filter="url(#filter2_f_124_2331)">
<path d="M73.3203 57.8886C75.5532 59.2186 78.4415 58.4866 79.7714 56.2537C81.1014 54.0207 80.3694 51.1324 78.1365 49.8025C75.9035 48.4725 73.0152 49.2046 71.6853 51.4375C70.3554 53.6704 71.0874 56.5587 73.3203 57.8886Z" fill="#F0F2F2"/>
<path d="M73.4541 57.664C75.563 58.9201 78.2908 58.2287 79.5468 56.1199C80.8029 54.011 80.1116 51.2832 78.0027 50.0271C75.8938 48.771 73.166 49.4624 71.9099 51.5713C70.6539 53.6801 71.3452 56.408 73.4541 57.664Z" stroke="#340300" stroke-width="3"/>
</g>
<path d="M91.7639 32.1684C92.9855 31.452 93.3033 29.8162 92.298 28.8187C90.288 26.8242 87.8352 25.1907 85.0764 24.0215C81.4448 22.4824 77.411 21.8023 73.381 22.0496C69.351 22.2969 65.4671 23.4629 62.12 25.4302C59.5914 26.9164 57.4366 28.8203 55.7725 31.0248C54.9148 32.1609 55.4605 33.7407 56.7716 34.2949V34.2949C57.8939 34.7693 59.179 34.3098 59.9159 33.3394C61.22 31.6218 62.904 30.1379 64.8776 28.9779C67.5081 27.4318 70.5605 26.5154 73.7276 26.3211C76.8948 26.1268 80.0649 26.6613 82.919 27.8708C85.0995 28.7949 87.0368 30.0881 88.6215 31.6678C89.4565 32.5003 90.7468 32.7649 91.7639 32.1684V32.1684Z" fill="white"/>
</g>
<defs>
<filter id="filter0_f_124_2331" x="36.6862" y="32.4989" width="73.1962" height="60.8531" filterUnits="userSpaceOnUse" color-interpolation-filters="sRGB">
<feFlood flood-opacity="0" result="BackgroundImageFix"/>
<feBlend mode="normal" in="SourceGraphic" in2="BackgroundImageFix" result="shape"/>
<feGaussianBlur stdDeviation="0.05" result="effect1_foregroundBlur_124_2331"/>
</filter>
<filter id="filter1_f_124_2331" x="41.7081" y="14.695" width="72.9893" height="60.2726" filterUnits="userSpaceOnUse" color-interpolation-filters="sRGB">
<feFlood flood-opacity="0" result="BackgroundImageFix"/>
<feBlend mode="normal" in="SourceGraphic" in2="BackgroundImageFix" result="shape"/>
<feGaussianBlur stdDeviation="0.05" result="effect1_foregroundBlur_124_2331"/>
</filter>
<filter id="filter2_f_124_2331" x="69.683" y="47.8002" width="12.0907" height="12.0907" filterUnits="userSpaceOnUse" color-interpolation-filters="sRGB">
<feFlood flood-opacity="0" result="BackgroundImageFix"/>
<feBlend mode="normal" in="SourceGraphic" in2="BackgroundImageFix" result="shape"/>
<feGaussianBlur stdDeviation="0.05" result="effect1_foregroundBlur_124_2331"/>
</filter>
<clipPath id="clip0_124_2331">
<rect width="80" height="80" fill="white" transform="translate(60.9374) rotate(30.7783)"/>
</clipPath>
</defs>
</svg>
