<svg width="80" height="80" viewBox="0 0 80 80" fill="none" xmlns="http://www.w3.org/2000/svg">
<circle cx="40" cy="40" r="40" fill="#BDE3FF"/>
<path d="M59.7916 20.208L48.3333 31.6663M46.2499 20.208H59.7916V33.7497M36.3541 59.7913C38.4744 59.7913 40.5739 59.3737 42.5328 58.5623C44.4917 57.7509 46.2716 56.5616 47.7709 55.0623C49.2702 53.5631 50.4595 51.7832 51.2709 49.8243C52.0823 47.8653 52.4999 45.7658 52.4999 43.6455C52.4999 41.5252 52.0823 39.4257 51.2709 37.4668C50.4595 35.5079 49.2702 33.728 47.7709 32.2287C46.2716 30.7294 44.4917 29.5401 42.5328 28.7287C40.5739 27.9173 38.4744 27.4997 36.3541 27.4997C32.0719 27.4997 27.9652 29.2007 24.9373 32.2287C21.9093 35.2566 20.2083 39.3634 20.2083 43.6455C20.2083 47.9276 21.9093 52.0344 24.9373 55.0623C27.9652 58.0903 32.0719 59.7913 36.3541 59.7913V59.7913Z" stroke="#FFF1EB" stroke-width="4" stroke-linecap="round" stroke-linejoin="round"/>
</svg>
