<svg width="50" height="50" viewBox="0 0 50 50" fill="none" xmlns="http://www.w3.org/2000/svg">
<mask id="path-1-inside-1_246_5540" fill="white">
<path d="M50 25C50 21.717 49.3534 18.4661 48.097 15.4329C46.8406 12.3998 44.9991 9.6438 42.6777 7.32233C40.3562 5.00087 37.6002 3.15938 34.5671 1.90301C31.5339 0.646644 28.283 -1.43507e-07 25 0C21.717 1.43507e-07 18.4661 0.646644 15.4329 1.90301C12.3998 3.15938 9.64379 5.00087 7.32233 7.32233C5.00086 9.6438 3.15938 12.3998 1.90301 15.4329C0.646644 18.4661 -2.87013e-07 21.717 0 25L20.74 25C20.74 24.4406 20.8502 23.8866 21.0643 23.3698C21.2784 22.8529 21.5922 22.3833 21.9877 21.9877C22.3833 21.5922 22.8529 21.2784 23.3698 21.0643C23.8866 20.8502 24.4406 20.74 25 20.74C25.5594 20.74 26.1134 20.8502 26.6302 21.0643C27.1471 21.2784 27.6167 21.5922 28.0123 21.9877C28.4078 22.3833 28.7216 22.8529 28.9357 23.3698C29.1498 23.8866 29.26 24.4406 29.26 25H50Z"/>
</mask>
<path d="M50 25C50 21.717 49.3534 18.4661 48.097 15.4329C46.8406 12.3998 44.9991 9.6438 42.6777 7.32233C40.3562 5.00087 37.6002 3.15938 34.5671 1.90301C31.5339 0.646644 28.283 -1.43507e-07 25 0C21.717 1.43507e-07 18.4661 0.646644 15.4329 1.90301C12.3998 3.15938 9.64379 5.00087 7.32233 7.32233C5.00086 9.6438 3.15938 12.3998 1.90301 15.4329C0.646644 18.4661 -2.87013e-07 21.717 0 25L20.74 25C20.74 24.4406 20.8502 23.8866 21.0643 23.3698C21.2784 22.8529 21.5922 22.3833 21.9877 21.9877C22.3833 21.5922 22.8529 21.2784 23.3698 21.0643C23.8866 20.8502 24.4406 20.74 25 20.74C25.5594 20.74 26.1134 20.8502 26.6302 21.0643C27.1471 21.2784 27.6167 21.5922 28.0123 21.9877C28.4078 22.3833 28.7216 22.8529 28.9357 23.3698C29.1498 23.8866 29.26 24.4406 29.26 25H50Z" stroke="#6A8480" stroke-width="4" mask="url(#path-1-inside-1_246_5540)"/>
<mask id="path-2-inside-2_246_5540" fill="white">
<path d="M0 25C-2.87013e-07 28.283 0.646644 31.5339 1.90301 34.5671C3.15938 37.6002 5.00087 40.3562 7.32233 42.6777C9.6438 44.9991 12.3998 46.8406 15.4329 48.097C18.4661 49.3534 21.717 50 25 50C28.283 50 31.5339 49.3534 34.5671 48.097C37.6002 46.8406 40.3562 44.9991 42.6777 42.6777C44.9991 40.3562 46.8406 37.6002 48.097 34.5671C49.3534 31.5339 50 28.283 50 25L29.2781 25C29.2781 25.5618 29.1674 26.1181 28.9524 26.6371C28.7374 27.1562 28.4223 27.6278 28.025 28.025C27.6278 28.4223 27.1562 28.7374 26.6371 28.9524C26.1181 29.1674 25.5618 29.2781 25 29.2781C24.4382 29.2781 23.8819 29.1674 23.3629 28.9524C22.8438 28.7374 22.3722 28.4223 21.975 28.025C21.5777 27.6278 21.2626 27.1562 21.0476 26.6371C20.8326 26.1181 20.7219 25.5618 20.7219 25L0 25Z"/>
</mask>
<path d="M0 25C-2.87013e-07 28.283 0.646644 31.5339 1.90301 34.5671C3.15938 37.6002 5.00087 40.3562 7.32233 42.6777C9.6438 44.9991 12.3998 46.8406 15.4329 48.097C18.4661 49.3534 21.717 50 25 50C28.283 50 31.5339 49.3534 34.5671 48.097C37.6002 46.8406 40.3562 44.9991 42.6777 42.6777C44.9991 40.3562 46.8406 37.6002 48.097 34.5671C49.3534 31.5339 50 28.283 50 25L29.2781 25C29.2781 25.5618 29.1674 26.1181 28.9524 26.6371C28.7374 27.1562 28.4223 27.6278 28.025 28.025C27.6278 28.4223 27.1562 28.7374 26.6371 28.9524C26.1181 29.1674 25.5618 29.2781 25 29.2781C24.4382 29.2781 23.8819 29.1674 23.3629 28.9524C22.8438 28.7374 22.3722 28.4223 21.975 28.025C21.5777 27.6278 21.2626 27.1562 21.0476 26.6371C20.8326 26.1181 20.7219 25.5618 20.7219 25L0 25Z" stroke="#6A8480" stroke-width="4" mask="url(#path-2-inside-2_246_5540)"/>
</svg>
