<svg width="40" height="40" viewBox="0 0 40 40" fill="none" xmlns="http://www.w3.org/2000/svg">
<circle cx="20" cy="20" r="19" stroke="#A1300A" stroke-width="2"/>
<path d="M23.31 20.26C26.14 20.26 28.44 17.96 28.44 15.13C28.44 12.3 26.14 10 23.31 10C20.48 10 18.18 12.3 18.18 15.13C18.18 16.43 18.66 17.61 19.46 18.51M11 24.361C11 26.061 12.38 27.441 14.08 27.441C15.78 27.441 17.16 26.061 17.16 24.361C17.16 22.661 15.78 21.281 14.08 21.281" stroke="#A1300A" stroke-width="2" stroke-miterlimit="10" stroke-linecap="round" stroke-linejoin="round"/>
<path d="M24.3403 29.9989C25.0192 29.9989 25.6704 29.7292 26.1505 29.2491C26.6306 28.769 26.9003 28.1179 26.9003 27.4389C26.9003 26.76 26.6306 26.1088 26.1505 25.6287C25.6704 25.1486 25.0192 24.8789 24.3403 24.8789C23.6613 24.8789 23.0102 25.1486 22.5301 25.6287C22.05 26.1088 21.7803 26.76 21.7803 27.4389C21.7803 28.1179 22.05 28.769 22.5301 29.2491C23.0102 29.7292 23.6613 29.9989 24.3403 29.9989V29.9989Z" stroke="#A1300A" stroke-width="2" stroke-miterlimit="10"/>
</svg>
