<svg width="80" height="80" viewBox="0 0 80 80" fill="none" xmlns="http://www.w3.org/2000/svg">
<circle cx="40" cy="40" r="40" fill="#D1D1D1"/>
<path d="M56 28C56 37.3888 48.3888 45 39 45C29.6112 45 22 37.3888 22 28C22 18.6112 29.6112 11 39 11C48.3888 11 56 18.6112 56 28ZM25.91 28C25.91 35.2294 31.7706 41.09 39 41.09C46.2294 41.09 52.09 35.2294 52.09 28C52.09 20.7706 46.2294 14.91 39 14.91C31.7706 14.91 25.91 20.7706 25.91 28Z" fill="#FFF1EB"/>
<line x1="40" y1="55" x2="40" y2="45" stroke="#FFF1EB" stroke-width="4"/>
<path d="M50 62C50 67.5228 45.5228 72 40 72C34.4772 72 30 67.5228 30 62C30 56.4772 34.4772 52 40 52C45.5228 52 50 56.4772 50 62ZM33 62C33 65.866 36.134 69 40 69C43.866 69 47 65.866 47 62C47 58.134 43.866 55 40 55C36.134 55 33 58.134 33 62Z" fill="#FFF1EB"/>
</svg>
